/* XPM */
static char * ftp_xpm[] = {
"25 25 11 1",
" 	c None",
".	c #050505",
"+	c #020202",
"@	c #010101",
"#	c #020201",
"$	c #060606",
"%	c #010100",
"&	c #040404",
"*	c #030303",
"=	c #000000",
"-	c #030302",
"                         ",
"              .+         ",
"            @@@@@@       ",
"           @@@@@@@@      ",
"          @@@@@@@@@@     ",
"     @@@@@@@@@@@@@@@     ",
"    @@@@@@@@@@@@@@@@#+   ",
"    +@@@@@@@@@@@@@@@@@@  ",
"   $@@@@@@@@@@@@@@@@#@#% ",
" @#@@@@@@@@&+&@@@@@@@#%+%",
"@@@@@@@@&       *@@@#%+=@",
"=@@@@@@   .#++&   @#%+=+=",
"%@@@@@   @@@@@@@   %+=+=@",
"@@@@@*  @@@+ +@@@  *=+=+ ",
" @@@@  @@@@   @@#@  +=+@ ",
"  @@@  @@@#   *#%+  =+   ",
"      +@@@     @+=&      ",
"      -@@       =+@      ",
"      -@@@@@ ++=+=.      ",
"       @@@@& *=+=+       ",
"       @#@#@ ++=+@       ",
"        @#%+ +=+%        ",
"         @+=+=+@         ",
"           $@$           ",
"                         "};
